<svg xmlns="http://www.w3.org/2000/svg" xmlns:xlink="http://www.w3.org/1999/xlink" width="729" height="725.667" viewBox="0 0 729 725.667">
  <defs>
    <radialGradient id="radial-gradient" cx="0.5" cy="0.5" r="0.5" gradientUnits="objectBoundingBox">
      <stop offset="0"/>
      <stop offset="1" stop-color="#390093"/>
    </radialGradient>
  </defs>
  <g id="Subtraction_1" data-name="Subtraction 1" transform="translate(0 0)" fill="url(#radial-gradient)">
    <path d="M 414.5 725.0942993164062 L 414.5 349.7501831054688 L 563.010986328125 309.95703125 C 566.3362426757812 309.0659484863281 569.3876342773438 307.5502319335938 572.0802612304688 305.4518737792969 C 574.6810913085938 303.4253234863281 576.83935546875 300.9435119628906 578.4951171875 298.0755004882812 C 580.15087890625 295.2073974609375 581.2210693359375 292.097412109375 581.6756591796875 288.8318481445312 C 582.146484375 285.4505004882812 581.933349609375 282.0503234863281 581.0423583984375 278.7256774902344 L 568.1012573242188 230.428955078125 C 567.3544311523438 227.6424102783203 566.1597900390625 225.0315856933594 564.5504760742188 222.6690368652344 C 562.9945678710938 220.3851318359375 561.0836181640625 218.3782196044922 558.8706665039062 216.7039489746094 C 556.6802978515625 215.0465850830078 554.2520141601562 213.7584075927734 551.6533813476562 212.8753204345703 C 549.0128173828125 211.9782257080078 546.2650146484375 211.5233154296875 543.4862060546875 211.5233154296875 C 541.2632446289062 211.5233154296875 539.0371704101562 211.8177642822266 536.8699340820312 212.3984985351562 L 164.9890899658203 312.0437622070312 C 161.663818359375 312.9346923828125 158.612548828125 314.4503173828125 155.9199066162109 316.5484924316406 C 153.3192749023438 318.5747680664062 151.1609954833984 321.0564880371094 149.5050964355469 323.9245910644531 C 147.8491821289062 326.7924194335938 146.7790985107422 329.9023132324219 146.3244476318359 333.1681213378906 C 145.8536376953125 336.5494079589844 146.0667266845703 339.9495849609375 146.9577331542969 343.2742309570312 L 159.8988189697266 391.5709533691406 C 160.6453704833984 394.3573303222656 161.8399047851562 396.9681396484375 163.4494476318359 399.3308715820312 C 165.0055389404297 401.6149597167969 166.9166412353516 403.6219482421875 169.1297302246094 405.2962341308594 C 171.3205413818359 406.953857421875 173.7489929199219 408.2420349121094 176.3476409912109 409.1250305175781 C 178.9880981445312 410.022216796875 181.736083984375 410.4771423339844 184.5150909423828 410.4771423339844 C 186.7373657226562 410.4771423339844 188.9629974365234 410.1827697753906 191.1300964355469 409.6023254394531 L 313.5000915527344 376.81298828125 L 313.5000915527344 724.9553833007812 C 291.865234375 721.9207763671875 270.4147338867188 716.9019165039062 249.7322692871094 710.0349731445312 C 229.2764587402344 703.2432861328125 209.2928161621094 694.55224609375 190.3366394042969 684.2032470703125 C 171.6219024658203 673.98583984375 153.6776428222656 662.0272216796875 137.0022735595703 648.6596069335938 C 120.4114532470703 635.3596801757812 104.8839111328125 620.5106811523438 90.85081481933594 604.525146484375 C 76.77554321289062 588.4913940429688 64.04199981689453 571.1293334960938 53.00381851196289 552.9212036132812 C 41.84436416625977 534.5130615234375 32.28200149536133 515.0149536132812 24.58236312866211 494.9687805175781 C 16.74209022521973 474.5564880371094 10.72818183898926 453.2995910644531 6.707454681396484 431.78857421875 C 2.588545560836792 409.7516784667969 0.5 387.1124877929688 0.5 364.5000305175781 C 0.5 352.0838623046875 1.132272720336914 339.5621337890625 2.379363536834717 327.2825927734375 C 3.608272790908813 315.1812133789062 5.464090824127197 303.0213928222656 7.895181655883789 291.1409606933594 C 12.67754554748535 267.7704162597656 19.81345367431641 244.7822265625 29.10481834411621 222.8151397705078 C 38.22727203369141 201.2469482421875 49.51863479614258 180.4442291259766 62.6652717590332 160.9846801757812 C 75.68663787841797 141.7104034423828 90.64109039306641 123.5854034423828 107.1132736206055 107.1132278442383 C 123.5848159790039 90.64158630371094 141.7097320556641 75.6871337890625 160.9846343994141 62.66522598266602 C 180.4440002441406 49.51868057250977 201.2468109130859 38.22731399536133 222.815185546875 29.10486030578613 C 244.7819976806641 19.81358909606934 267.7700805664062 12.67758846282959 291.1408996582031 7.895224571228027 C 303.0216369628906 5.464133739471436 315.1814575195312 3.608315467834473 327.2826232910156 2.379406452178955 C 339.5621032714844 1.132315516471863 352.0838317871094 0.5000428557395935 364.5 0.5000428557395935 C 376.9161682128906 0.5000428557395935 389.4378967285156 1.132315516471863 401.7174682617188 2.379406452178955 C 413.8188171386719 3.608315467834473 425.9786376953125 5.464133739471436 437.8591003417969 7.895224571228027 C 461.2296447753906 12.67758846282959 484.2178039550781 19.81349754333496 506.1849060058594 29.10486030578613 C 527.7533569335938 38.22749710083008 548.5560913085938 49.51885986328125 568.015380859375 62.66522598266602 C 587.2899169921875 75.68685913085938 605.4149169921875 90.64131927490234 621.8868408203125 107.1132278442383 C 638.3587036132812 123.5851364135742 653.3131713867188 141.7101287841797 666.3348388671875 160.9846801757812 C 679.481201171875 180.4439544677734 690.7725219726562 201.2466735839844 699.8952026367188 222.8151397705078 C 709.1865234375 244.7822265625 716.3224487304688 267.7704162597656 721.1047973632812 291.1409606933594 C 723.535888671875 303.0213928222656 725.3917236328125 315.1812133789062 726.6206665039062 327.2825927734375 C 727.8677368164062 339.5621337890625 728.5 352.0838623046875 728.5 364.5000305175781 C 728.5 387.1562194824219 726.4039306640625 409.8378601074219 722.2700805664062 431.9150390625 C 718.2349243164062 453.4653930664062 712.1996459960938 474.7585754394531 704.3319091796875 495.2032165527344 C 696.6052856445312 515.2816162109375 687.0098266601562 534.8076171875 675.8121948242188 553.23876953125 C 664.73583984375 571.4703979492188 651.9592895507812 588.8499755859375 637.8375244140625 604.8946533203125 C 623.7578125 620.8919677734375 608.1793823242188 635.7457885742188 591.5350952148438 649.0435791015625 C 574.8048095703125 662.4099731445312 556.8038330078125 674.3585205078125 538.031982421875 684.5574340820312 C 519.0162963867188 694.8889770507812 498.971923828125 703.5530395507812 478.455810546875 710.3090209960938 C 457.7099304199219 717.1407470703125 436.1942749023438 722.1144409179688 414.5 725.0942993164062 Z" stroke="none"/>
    <path d="M 415 724.5205078125 C 436.4717102050781 721.5362548828125 457.7633361816406 716.5967407226562 478.2993774414062 709.8341064453125 C 498.7871704101562 703.0875244140625 518.8038330078125 694.4354248046875 537.7933349609375 684.1180419921875 C 556.5392456054688 673.93310546875 574.515625 662.0009765625 591.2230224609375 648.6529541015625 C 607.8445434570312 635.373291015625 623.4017333984375 620.539794921875 637.4622802734375 604.5643310546875 C 651.5646362304688 588.5415649414062 664.32373046875 571.185791015625 675.3848876953125 552.979248046875 C 686.5670776367188 534.5734252929688 696.1492919921875 515.0743408203125 703.8652954101562 495.0235900878906 C 711.7221069335938 474.6073303222656 717.7490234375 453.343505859375 721.7786254882812 431.8229370117188 C 725.9067993164062 409.776123046875 728 387.1253967285156 728 364.5000305175781 C 728 352.1006774902344 727.3685302734375 339.5958557128906 726.1231689453125 327.3330383300781 C 724.8959350585938 315.2483215332031 723.042724609375 303.1053161621094 720.6149291992188 291.2411193847656 C 715.8392944335938 267.9029541015625 708.7131958007812 244.9466857910156 699.4347534179688 223.0098571777344 C 690.3246459960938 201.4712219238281 679.048828125 180.6970367431641 665.9204711914062 161.2645874023438 C 652.916748046875 142.0164031982422 637.9827270507812 123.9162216186523 621.5332641601562 107.4667663574219 C 605.0838012695312 91.01731872558594 586.983642578125 76.08331298828125 567.7354736328125 63.07958984375 C 548.302978515625 49.95122528076172 527.52880859375 38.67540740966797 505.9901733398438 29.56531524658203 C 484.0533752441406 20.28686141967773 461.0970764160156 13.16077041625977 437.7589111328125 8.385133743286133 C 425.8947143554688 5.957315444946289 413.7517395019531 4.104133605957031 401.6669921875 2.876861095428467 C 389.4041748046875 1.631497383117676 376.8993530273438 1.000042796134949 364.5 1.000042796134949 C 352.1006469726562 1.000042796134949 339.5958251953125 1.631497383117676 327.3330993652344 2.876861095428467 C 315.2486267089844 4.104043006896973 303.1055603027344 5.957315444946289 291.2410888671875 8.385133743286133 C 267.9027404785156 13.16086101531982 244.9464569091797 20.28686141967773 223.0099029541016 29.56531524658203 C 201.4713592529297 38.67531585693359 180.6971893310547 49.95113372802734 161.2645416259766 63.07958984375 C 142.0160064697266 76.08367919921875 123.9158172607422 91.01767730712891 107.4668197631836 107.4667663574219 C 91.01708984375 123.9164962768555 76.08309173583984 142.0166778564453 63.07963562011719 161.2645874023438 C 49.95100021362305 180.6974029541016 38.6751823425293 201.4714965820312 29.56527328491211 223.0098571777344 C 20.28681755065918 244.9466857910156 13.16072750091553 267.9029541015625 8.385090827941895 291.2411193847656 C 5.957272529602051 303.1053161621094 4.104090690612793 315.2483215332031 2.876818180084229 327.3330383300781 C 1.631454586982727 339.5958557128906 1 352.1006774902344 1 364.5000305175781 C 1 387.0817565917969 3.085636377334595 409.6900329589844 7.198999881744385 431.69677734375 C 11.21409130096436 453.1779479980469 17.2197265625 474.4053955078125 25.04918098449707 494.7894897460938 C 32.73818206787109 514.8080444335938 42.2873649597168 534.2791137695312 53.43145370483398 552.6620483398438 C 64.45445251464844 570.8451538085938 77.17054748535156 588.1834106445312 91.22663879394531 604.1952514648438 C 105.2404556274414 620.158935546875 120.7469100952148 634.9876708984375 137.3150024414062 648.2694091796875 C 153.9675445556641 661.6187744140625 171.8871765136719 673.56103515625 190.5761871337891 683.7643432617188 C 209.5062713623047 694.09912109375 229.4622802734375 702.7781372070312 249.8898162841797 709.5604248046875 C 270.3618469238281 716.3575439453125 291.5884399414062 721.3416137695312 313.0000915527344 724.3798828125 L 313.0000915527344 377.4645385742188 L 191.2594604492188 410.0852355957031 C 189.0501861572266 410.6770324707031 186.7810974121094 410.9771423339844 184.5150909423828 410.9771423339844 C 181.6812744140625 410.9771423339844 178.8791809082031 410.5132141113281 176.1867218017578 409.5984191894531 C 173.5374603271484 408.6982116699219 171.0615386962891 407.3848571777344 168.8280029296875 405.6949462890625 C 166.5715484619141 403.9878540039062 164.6229095458984 401.94140625 163.0362701416016 399.6123962402344 C 161.3950042724609 397.203125 160.1769104003906 394.5410461425781 159.4159088134766 391.7003173828125 L 146.4748229980469 343.4036865234375 C 145.5663604736328 340.0140380859375 145.3491821289062 336.547119140625 145.8291778564453 333.09912109375 C 146.2928161621094 329.7693176269531 147.3838195800781 326.5984191894531 149.0720977783203 323.6745910644531 C 150.7602691650391 320.7503967285156 152.9609069824219 318.2201232910156 155.6126403808594 316.154052734375 C 158.3582763671875 314.0144958496094 161.4694519042969 312.4691467285156 164.8597259521484 311.5608520507812 L 536.7405395507812 211.9155883789062 C 538.9500122070312 211.3235015869141 541.2195434570312 211.0233154296875 543.4862060546875 211.0233154296875 C 546.31982421875 211.0233154296875 549.1217041015625 211.4871368408203 551.814208984375 212.4019470214844 C 554.4635620117188 213.3022308349609 556.9392700195312 214.6154937744141 559.17236328125 216.3052215576172 C 561.4287109375 218.0123138427734 563.377197265625 220.0586853027344 564.963623046875 222.3874969482422 C 566.604736328125 224.7965850830078 567.8228149414062 227.4585876464844 568.5841674804688 230.2995910644531 L 581.5252685546875 278.5962219238281 C 582.4337158203125 281.9858703613281 582.65087890625 285.4527587890625 582.1708984375 288.9008483886719 C 581.7073364257812 292.2304077148438 580.6163940429688 295.4013061523438 578.9281005859375 298.3255004882812 C 577.239990234375 301.24951171875 575.0394287109375 303.7798461914062 572.3875732421875 305.8463134765625 C 569.6419067382812 307.9859619140625 566.5307006835938 309.531494140625 563.1404418945312 310.43994140625 L 415 350.1338195800781 L 415 724.5205078125 M 413.9996337890625 725.6672973632812 L 414 725.667236328125 L 414 349.3664855957031 L 562.8816528320312 309.4740295410156 C 566.141845703125 308.6004028320312 569.13330078125 307.114501953125 571.7728881835938 305.0574951171875 C 574.3226318359375 303.0706787109375 576.4386596679688 300.6375122070312 578.0620727539062 297.8255004882812 C 579.685546875 295.0134887695312 580.7347412109375 291.9645080566406 581.1804809570312 288.762939453125 C 581.6419067382812 285.4483032226562 581.4329833984375 282.1148681640625 580.5593872070312 278.8551330566406 L 567.6182861328125 230.5584106445312 C 566.8861083984375 227.8262176513672 565.7149047851562 225.2665863037109 564.13720703125 222.9505004882812 C 562.6119995117188 220.7116851806641 560.738525390625 218.744140625 558.5689697265625 217.1026763916016 C 556.4212646484375 215.4775848388672 554.0403442382812 214.2145843505859 551.492431640625 213.3487701416016 C 548.9039916992188 212.4693145751953 546.2102661132812 212.0233154296875 543.4862060546875 212.0233154296875 C 541.306884765625 212.0233154296875 539.1244506835938 212.3120422363281 536.9993896484375 212.8815002441406 L 165.1185455322266 312.5267639160156 C 161.8583679199219 313.4002380371094 158.8669128417969 314.8859558105469 156.2272796630859 316.94287109375 C 153.6776428222656 318.9294128417969 151.5616302490234 321.3624877929688 149.9380950927734 324.1745910644531 C 148.3145446777344 326.9864196777344 147.2653656005859 330.0354919433594 146.8196411132812 333.2370300292969 C 146.3581848144531 336.5515747070312 146.5670928955078 339.8850402832031 147.4407348632812 343.144775390625 L 160.3818206787109 391.4414978027344 C 161.1137237548828 394.1734924316406 162.284912109375 396.7332153320312 163.8627319335938 399.0494079589844 C 165.3880004882812 401.288330078125 167.2615509033203 403.2559509277344 169.4313659667969 404.8974914550781 C 171.5793609619141 406.5226745605469 173.9603576660156 407.7857666015625 176.5084533691406 408.6515808105469 C 179.0970001220703 409.5311279296875 181.7908172607422 409.9771423339844 184.5150909423828 409.9771423339844 C 186.6938171386719 409.9771423339844 188.8759155273438 409.6885070800781 191.000732421875 409.1193237304688 L 314.0000915527344 376.1613159179688 L 314.0000915527344 725.5299682617188 C 292.1405334472656 722.4993896484375 270.465087890625 717.4454956054688 249.5747222900391 710.509521484375 C 229.0904541015625 703.7084350585938 209.0792694091797 695.0053100585938 190.0970001220703 684.6420288085938 C 171.3564605712891 674.4105834960938 153.3876342773438 662.4356079101562 136.6895446777344 649.0496826171875 C 120.0758209228516 635.7313842773438 104.5270919799805 620.8621215820312 90.47509002685547 604.85498046875 C 76.38054656982422 588.79931640625 63.62954711914062 571.4135131835938 52.57627105712891 553.180419921875 C 41.40145492553711 534.7468872070312 31.82590866088867 515.221923828125 24.11563682556152 495.1480407714844 C 16.26445388793945 474.7073059082031 10.2421817779541 453.4210510253906 6.216000080108643 431.8804931640625 C 2.091363668441772 409.8133239746094 0 387.143310546875 0 364.5000305175781 C 0 352.0668640136719 0.6331818103790283 339.5281372070312 1.881909132003784 327.2320556640625 C 3.112545490264893 315.1140441894531 4.970909118652344 302.9375 7.4053635597229 291.0406799316406 C 12.19427299499512 267.6378479003906 19.34009170532227 244.6178588867188 28.64427185058594 222.6203155517578 C 37.77945327758789 201.0221405029297 49.08645629882812 180.1907653808594 62.25099945068359 160.7047729492188 C 75.29018402099609 141.4040374755859 90.26509094238281 123.2543182373047 106.7597274780273 106.7596817016602 C 123.2537307739258 90.26558685302734 141.4034576416016 75.29067993164062 160.7047271728516 62.25095367431641 C 180.1909027099609 49.0863151550293 201.0223693847656 37.7794075012207 222.620361328125 28.64431571960449 C 244.6179962158203 19.34004211425781 267.6379089355469 12.19431591033936 291.0406494140625 7.405406475067139 C 302.9377136230469 4.970952033996582 315.1142578125 3.112588405609131 327.2320861816406 1.881951928138733 C 339.528076171875 0.6332246661186218 352.0668029785156 4.283558155293576e-05 364.5 4.283558155293576e-05 C 376.9331970214844 4.283558155293576e-05 389.471923828125 0.6332246661186218 401.7680053710938 1.881951928138733 C 413.885986328125 3.112588405609131 426.0625305175781 4.970952033996582 437.9593505859375 7.405406475067139 C 461.3621826171875 12.19431591033936 484.3821716308594 19.34013366699219 506.3797302246094 28.64431571960449 C 527.9777221679688 37.77949905395508 548.8092041015625 49.08640670776367 568.2952880859375 62.25095367431641 C 587.5962524414062 75.2904052734375 605.7459716796875 90.26531219482422 622.2403564453125 106.7596817016602 C 638.7347412109375 123.2540435791016 653.7096557617188 141.4037628173828 666.7490844726562 160.7047729492188 C 679.9136352539062 180.1908569335938 691.2205200195312 201.0223083496094 700.355712890625 222.6203155517578 C 709.659912109375 244.6178588867188 716.8057250976562 267.6378479003906 721.5946655273438 291.0406799316406 C 724.0291137695312 302.9375 725.887451171875 315.1140441894531 727.1181030273438 327.2320556640625 C 728.3668212890625 339.5281372070312 729 352.0668640136719 729 364.5000305175781 C 729 387.1869506835938 726.9010620117188 409.8995971679688 722.7615356445312 432.0070495605469 C 718.720703125 453.5873107910156 712.6770629882812 474.9099426269531 704.7985229492188 495.3827819824219 C 697.0611572265625 515.4889526367188 687.4525756835938 535.0418701171875 676.2395629882812 553.4984130859375 C 665.1480102539062 571.7549438476562 652.35400390625 589.1583251953125 638.212890625 605.2250366210938 C 624.114013671875 621.2440185546875 608.5142822265625 636.1182250976562 591.84716796875 649.4342041015625 C 575.0941162109375 662.8187866210938 557.068359375 674.7837524414062 538.270751953125 684.9967651367188 C 519.2283935546875 695.3427734375 499.1562805175781 704.018798828125 478.6121826171875 710.783935546875 C 457.656005859375 717.6849365234375 435.9173583984375 722.6923828125 414 725.667236328125 L 413.9996337890625 725.6672973632812 Z" stroke="none" fill="#707070"/>
  </g>
</svg>
